<svg width="158" height="48" viewBox="0 0 158 48" fill="none" xmlns="http://www.w3.org/2000/svg">
<path d="M0.0547602 15.1246L0.0192849 35.7696C0.0110436 40.5656 5.35471 43.4324 9.34604 40.7731L29.9416 27.0514L50.4899 40.8438C54.4721 43.5168 59.8255 40.6684 59.8338 35.8723L59.8681 15.8752C59.8817 7.99357 52.3194 2.30981 44.7523 4.51426L43.8791 4.76865C34.2791 7.56535 24.0679 7.47109 14.5211 4.49764C7.35072 2.26432 0.0676653 7.61443 0.0547602 15.1246Z" fill="url(#paint0_linear_16351_3504)"/>
<path d="M30.1635 27.0569L24.13 22.7648C23.7654 22.5055 23.2697 22.8189 23.3478 23.2595L24.6409 30.5568L30.1635 27.0569Z" fill="#110F28" fill-opacity="0.15"/>
<path d="M7.59189 7.00005C2.48172 9.75489 3.07345 12 3.07346 14.5" stroke="white" stroke-opacity="0.4" stroke-width="1.5" stroke-linecap="round"/>
<path d="M57.2744 26.0004L57.2744 27.0004" stroke="white" stroke-opacity="0.4" stroke-width="1.5" stroke-linecap="round"/>
<path d="M3.05249 18V20" stroke="white" stroke-opacity="0.4" stroke-width="1.5" stroke-linecap="round"/>
<path d="M57.2744 30.0004L57.2744 35.0004" stroke="white" stroke-opacity="0.4" stroke-width="1.5" stroke-linecap="round"/>
<path d="M13.0526 15L13.0526 21" stroke="#0A0D27" stroke-width="2" stroke-linecap="round"/>
<path d="M10.0403 18L16.0649 18" stroke="#0A0D27" stroke-width="2" stroke-linecap="round"/>
<ellipse cx="1.50616" cy="1.5" rx="1.50616" ry="1.5" transform="matrix(1 7.0266e-06 7.05545e-06 1 43.2168 12.057)" fill="#0A0D27"/>
<ellipse cx="1.50616" cy="1.5" rx="1.50616" ry="1.5" transform="matrix(1 7.0266e-06 7.05545e-06 1 48.2373 16.0003)" fill="#0A0D27"/>
<ellipse cx="1.50616" cy="1.5" rx="1.50616" ry="1.5" transform="matrix(1 7.0266e-06 7.05545e-06 1 43.2168 20.0003)" fill="#0A0D27"/>
<ellipse cx="1.50616" cy="1.5" rx="1.50616" ry="1.5" transform="matrix(1 7.0266e-06 7.05545e-06 1 38.1963 16.0003)" fill="#0A0D27"/>
<path d="M79.2629 12.53C79.2429 12.53 79.2229 12.53 79.2029 12.53C78.5229 12.63 78.0029 12.97 77.6429 13.55C77.4229 13.93 77.3129 14.33 77.3129 14.75C77.3129 14.85 77.3229 14.95 77.3429 15.05V15.08L78.7229 24.41C78.8029 24.95 79.0629 25.4 79.5029 25.76C79.9229 26.08 80.3929 26.24 80.9129 26.24C81.0329 26.24 81.1529 26.23 81.2729 26.21C81.9329 26.11 82.4429 25.79 82.8029 25.25C83.0629 24.89 83.1929 24.48 83.1929 24.02C83.1929 23.94 83.1829 23.85 83.1629 23.75L81.7829 14.42C81.7029 13.86 81.4429 13.39 81.0029 13.01C80.5829 12.67 80.1029 12.5 79.5629 12.5C79.4629 12.5 79.3629 12.51 79.2629 12.53ZM98.0429 12.5C97.5029 12.5 97.0229 12.68 96.6029 13.04C96.1629 13.4 95.9029 13.86 95.8229 14.42L94.4129 23.93C94.3929 24.01 94.3829 24.08 94.3829 24.14C94.3829 24.66 94.5529 25.12 94.8929 25.52C95.2529 25.98 95.7329 26.25 96.3329 26.33C96.4329 26.35 96.5429 26.36 96.6629 26.36C97.3229 26.36 97.8729 26.12 98.3129 25.64C98.6129 25.32 98.8029 24.94 98.8829 24.5V24.47V24.44L100.263 15.08V15.05C100.283 14.95 100.293 14.85 100.293 14.75C100.293 14.33 100.173 13.93 99.9329 13.55C99.5729 12.97 99.0629 12.63 98.4029 12.53C98.3629 12.53 98.3429 12.53 98.3429 12.53C98.2429 12.51 98.1429 12.5 98.0429 12.5ZM88.8029 20.54C88.7829 20.54 88.7629 20.54 88.7429 20.54C88.6629 20.54 88.5829 20.55 88.5029 20.57C88.1429 20.61 87.8129 20.73 87.5129 20.93C87.3529 21.03 87.2129 21.15 87.0929 21.29C87.0129 21.37 86.8829 21.51 86.7029 21.71L84.5129 24.41C84.3329 24.61 84.0929 24.89 83.7929 25.25C83.5129 25.59 83.2829 25.84 83.1029 26C82.7229 26.34 82.3529 26.58 81.9929 26.72C81.7929 26.8 81.5829 26.86 81.3629 26.9C81.2229 26.92 81.0729 26.93 80.9129 26.93C80.5329 26.93 80.1729 26.86 79.8329 26.72C79.5129 26.6 79.2329 26.43 78.9929 26.21L79.7429 31.34V31.4C79.7629 31.44 79.7729 31.49 79.7729 31.55C79.8129 31.73 79.8629 31.9 79.9229 32.06C80.0629 32.36 80.2729 32.62 80.5529 32.84C80.7329 33 80.9329 33.12 81.1529 33.2C81.3929 33.28 81.6429 33.32 81.9029 33.32C81.9429 33.32 81.9729 33.32 81.9929 33.32C82.1529 33.32 82.2929 33.31 82.4129 33.29C82.8729 33.19 83.2629 32.97 83.5829 32.63C83.6629 32.55 83.7629 32.45 83.8829 32.33L88.7729 26.3L93.5129 32.12C93.7529 32.4 93.9029 32.57 93.9629 32.63C94.3429 33.01 94.7929 33.24 95.3129 33.32C95.4129 33.32 95.5229 33.32 95.6429 33.32C95.9229 33.32 96.1929 33.27 96.4529 33.17C96.8729 32.99 97.2229 32.71 97.5029 32.33C97.6829 32.05 97.8029 31.74 97.8629 31.4V31.34L98.6129 26.33C98.2729 26.63 97.8829 26.83 97.4429 26.93C97.1829 27.01 96.9229 27.05 96.6629 27.05C96.5229 27.05 96.3729 27.04 96.2129 27.02C95.9329 26.98 95.6629 26.9 95.4029 26.78C95.1429 26.66 94.8129 26.41 94.4129 26.03C94.1529 25.77 93.8229 25.38 93.4229 24.86L90.9029 21.8C90.7629 21.62 90.6229 21.46 90.4829 21.32C90.2829 21.12 90.0929 20.97 89.9129 20.87C89.6129 20.67 89.2729 20.56 88.8929 20.54C88.8529 20.54 88.8229 20.54 88.8029 20.54ZM108.609 20.84C108.889 20.58 109.209 20.38 109.569 20.24C109.909 20.1 110.259 20.03 110.619 20.03C111.079 20.03 111.519 20.14 111.939 20.36C112.419 20.6 112.809 20.94 113.109 21.38C113.469 20.1 114.179 19.05 115.239 18.23C116.299 17.41 117.499 17 118.839 17C120.499 17 121.909 17.59 123.069 18.77C124.229 19.93 124.809 21.34 124.809 23C124.809 24.66 124.229 26.08 123.069 27.26C121.909 28.42 120.499 29 118.839 29C117.499 29 116.289 28.6 115.209 27.8C114.149 26.98 113.439 25.92 113.079 24.62C112.859 24.96 112.579 25.25 112.239 25.49C111.739 25.79 111.199 25.94 110.619 25.94C110.199 25.94 109.789 25.86 109.389 25.7C109.089 25.56 108.829 25.38 108.609 25.16C109.109 27.58 110.319 29.58 112.239 31.16C114.159 32.72 116.359 33.5 118.839 33.5C120.739 33.5 122.489 33.03 124.089 32.09C125.709 31.15 126.979 29.88 127.899 28.28C128.839 26.66 129.309 24.9 129.309 23C129.309 21.1 128.839 19.35 127.899 17.75C126.979 16.13 125.709 14.85 124.089 13.91C122.489 12.97 120.739 12.5 118.839 12.5C116.379 12.5 114.189 13.29 112.269 14.87C110.349 16.43 109.129 18.42 108.609 20.84ZM110.619 20.75C109.959 20.75 109.409 20.99 108.969 21.47C108.729 21.71 108.559 22 108.459 22.34C108.399 22.56 108.369 22.79 108.369 23.03C108.369 23.25 108.399 23.46 108.459 23.66C108.539 23.94 108.669 24.19 108.849 24.41C109.289 24.97 109.879 25.25 110.619 25.25C111.339 25.25 111.919 24.98 112.359 24.44C112.579 24.18 112.729 23.9 112.809 23.6C112.849 23.4 112.869 23.2 112.869 23C112.869 22.82 112.849 22.65 112.809 22.49C112.729 22.11 112.569 21.78 112.329 21.5C111.869 21 111.299 20.75 110.619 20.75ZM140.268 12.5C139.668 12.5 139.148 12.71 138.708 13.13C138.248 13.57 138.018 14.11 138.018 14.75V20.9C138.258 20.62 138.548 20.4 138.888 20.24C139.308 20.04 139.758 19.94 140.238 19.94H140.298C140.758 19.94 141.198 20.04 141.618 20.24C141.958 20.4 142.258 20.62 142.518 20.9C142.578 20.96 142.628 21.02 142.668 21.08L152.478 32.63C152.918 33.21 153.508 33.5 154.248 33.5C154.908 33.5 155.468 33.25 155.928 32.75C156.308 32.33 156.498 31.83 156.498 31.25V31.22V25.13C156.238 25.39 155.938 25.6 155.598 25.76C155.178 25.96 154.728 26.06 154.248 26.06C153.688 26.06 153.168 25.93 152.688 25.67C152.348 25.47 152.058 25.22 151.818 24.92L141.948 13.25C141.728 13.01 141.468 12.82 141.168 12.68C140.888 12.56 140.588 12.5 140.268 12.5ZM154.248 12.5C153.628 12.5 153.108 12.71 152.688 13.13C152.228 13.57 151.998 14.11 151.998 14.75V23.45C151.998 23.87 152.138 24.25 152.418 24.59C152.858 25.15 153.468 25.43 154.248 25.43C154.788 25.43 155.268 25.28 155.688 24.98C156.208 24.58 156.478 24.07 156.498 23.45V14.75C156.478 14.05 156.208 13.48 155.688 13.04C155.268 12.68 154.788 12.5 154.248 12.5ZM140.238 20.57C139.638 20.57 139.128 20.76 138.708 21.14C138.268 21.54 138.038 22.02 138.018 22.58V31.19V31.25C138.018 31.75 138.168 32.2 138.468 32.6C138.928 33.2 139.528 33.5 140.268 33.5C140.908 33.5 141.448 33.27 141.888 32.81C142.308 32.39 142.518 31.87 142.518 31.25V31.22V22.58C142.498 21.78 142.108 21.19 141.348 20.81C141.028 20.65 140.678 20.57 140.298 20.57H140.238Z" fill="#0A0D27"/>
<defs>
<linearGradient id="paint0_linear_16351_3504" x1="29.1592" y1="-7.4998" x2="30.1547" y2="49.0004" gradientUnits="userSpaceOnUse">
<stop stop-color="#FF5F5F"/>
<stop offset="1" stop-color="#F062C0"/>
<stop offset="1" stop-color="#F23131"/>
</linearGradient>
</defs>
</svg>
